<svg width="301" height="364" viewBox="0 0 301 364" fill="none" xmlns="http://www.w3.org/2000/svg">
<path fill-rule="evenodd" clip-rule="evenodd" d="M16.4871 234.316C21.7808 241.092 32.0991 254.662 62.7325 244.447C93.3504 234.253 109.836 253.779 109.836 253.779C110.844 254.757 111.576 255.763 112.369 256.765C151.601 252.417 260.432 234.71 269.429 234.135C282.325 233.336 286.531 228.985 290.714 247.025C292.796 256.005 294.651 263.987 290.714 247.025C281.642 247.594 163.141 282.994 117.303 278.23C116.993 279.775 116.441 281.229 115.664 282.551C87.2997 321.568 40.5748 284.443 31.7006 275.685C15.8551 260.093 11.1779 227.561 16.4871 234.316Z" fill="white"/>
<path d="M190.5 157L199.125 136.067V82.2471C213.969 77.5685 225 61.3137 225 41.8667C225 18.7772 209.527 0 190.5 0C171.473 0 156 18.7772 156 41.8667C156 61.3137 167.031 77.5685 181.875 82.2471V136.067L190.5 157Z" fill="white"/>
<path d="M227.41 90.0105L222.799 110.238C245.211 117.75 259.7 132.196 259.7 147.052C259.7 166.902 231.285 189.017 190.5 189.017C149.715 189.017 121.3 166.902 121.3 147.052C121.3 132.196 135.789 117.75 158.21 110.227L153.599 90C123.004 100.261 104 122.114 104 147.052C104 182.345 141.999 210 190.5 210C239.001 210 277 182.345 277 147.052C277 122.114 257.996 100.261 227.41 90.0105Z" fill="white"/>
</svg>
