<svg height="512" viewBox="0 0 50 58" width="512" xmlns="http://www.w3.org/2000/svg"><g id="Page-1" fill="none" fill-rule="evenodd"><g id="085---Statue" fill-rule="nonzero" transform="translate(-1 -1)"><path id="Shape" d="m16 54h20v4c0 .5522847-.4477153 1-1 1h-18c-.5522847 0-1-.4477153-1-1z" fill="#efc319"/><path id="Shape" d="m45.75 37.31c-1.68 2.92-6.95 9.69-19.75 9.69s-18.07-6.76-19.75-9.68c-.43222956-.786777-.28481356-1.7654555.36-2.39 3.9759998-3.7259259 8.997971-6.1444291 14.39-6.93v-5.35c-2.3985166-.8419479-4.0028032-3.1080027-4-5.65v-6.69c-.0599902-4.81675553 3.601546-8.86624027 8.4-9.29 3.3589899-.26824504 6.5847032 1.36972195 8.35 4.24.3628299.59248605.6516511 1.22722104.86 1.89.2588998.84923017.3903316 1.73218195.39 2.62l2.86 3.72c.1832455.3090648.1865957.6926808.0087761 1.004899-.1778196.3122181-.5094712.5050383-.8687761.505101h-2v5c0 1.6568542-1.3431458 3-3 3h-1v4.14c-.0031229.4832474.3437784.8978367.82.98 5.096172.9053703 9.8184102 3.2751764 13.59 6.82.6344972.6230977.7737331 1.593654.34 2.37z" fill="#f4eec9"/><path id="Shape" d="m37.75 44.55c-3.6772286 1.7061168-7.6973538 2.5443556-11.75 2.45-.2 0-.4 0-.6-.01-2.3319201-6.6972252-6.792469-12.4467674-12.7-16.37 2.6076483-1.3142952 5.4103688-2.1990094 8.3-2.62 0 0 11.68 5.01 16.75 16.55z" fill="#f9c076"/><path id="Shape" d="m31 23v2h-4c-.5522847 0-1-.4477153-1-1s.4477153-1 1-1z" fill="#f8e9af"/><path id="Shape" d="m34.26 7.21c-.89.12-2.04.3-3.34.56.0666914.23373085.0416541.4841037-.07.7-.1742459.33048363-.5163995.53808244-.89.54-.1569877.00285766-.3120337-.03504247-.45-.11l-1.13-.57c-.49.12-.99.25-1.5.39.1267085.26997997.123025.58307572-.01.85-.1694502.33627965-.5134418.5488587-.89.55-.1596106-.001962-.3167686-.0395432-.46-.11l-1.06-.54c-.56.19-1.12.39-1.68.61.2369216.2987612.2818469.7067988.1156001 1.0499491-.1662467.3431504-.5143003.5608007-.8956001.5600509-.1596106-.001962-.3167686-.0395432-.46-.11l-1-.51c-1.2530396.6007785-2.4395428 1.33145-3.54 2.18v-2.45c.9046243-.5904297 1.8466027-1.12154516 2.82-1.59l.58-1.14c.1750194-.35672032.5463568-.57423815.943101-.55243902.3967443.02179914.7420152.27869105.876899.65243902.53-.21 1.07-.41 1.61-.59l.55-1.09c.1216317-.23640218.3323931-.41463949.585711-.49532594s.5283385-.05717966.764289.06532594c.2940094.15039743.4903229.44109246.52.77.54-.15 1.07-.29 1.59-.42l.52-1.02c.2125087-.41548218.6841417-.62873678 1.1364573-.51386298s.7650379.52732977.7535427.99386298c1.35-.27 2.56-.47 3.5-.61.3628299.59248605.6516511 1.22722104.86 1.89-.1147903.02972089-.2318649.04979082-.35.06z" fill="#f9c076"/><path id="Shape" d="m28.229 42c-.3647431.000503-.7008293-.197623-.877-.517-1.8139221-3.2470888-4.1862495-6.1488568-7.008-8.572-.416975-.3622988-.4612988-.994025-.099-1.411s.994025-.4612988 1.411-.099c2.9979158 2.577453 5.5178339 5.663371 7.444 9.116.1704833.3090567.1654147.6850968-.0133367.9894462s-.5047072.4919251-.8576633.4935538z" fill="#f08c46"/><path id="Shape" d="m35 16v2h-12c-1.6568542 0-3-1.3431458-3-3v-1c0-.5522847.4477153-1 1-1s1 .4477153 1 1v1c0 .5522847.4477153 1 1 1z" fill="#f9c076"/><path id="Shape" d="m51 53c-.0093253 2.9147304-2.1120571 5.4011248-4.9847776 5.8942957-2.8727204.4931709-5.6843153-1.1495623-6.6652224-3.8942957h-26.7c-1.0173884 2.8776026-4.03292918 4.5328781-7.00682995 3.846154-2.97390077-.6867242-4.95836558-3.4965859-4.61104939-6.5289195.3473162-3.0323337 2.91572212-5.3207205 5.96787934-5.3172345h38c3.3137085 0 6 2.6862915 6 6z" fill="#f2d45b"/><g fill="#efc319"><path id="Shape" d="m15 53c.0020502.6780262-.0991082 1.3524151-.3 2h-2.05c.0004562-.1159264.0207492-.2309197.06-.34.1915296-.532507.2896386-1.0940961.29-1.66 0-.5522847-.4477153-1-1-1s-1 .4477153-1 1-.4477153 1-1 1c-.55228475 0-1-.4477153-1-1 0-1.6568542 1.3431458-3 3-3s3 1.3431458 3 3z"/><path id="Shape" d="m43 53c0 .5522847-.4477153 1-1 1s-1-.4477153-1-1-.4477153-1-1-1-1 .4477153-1 1c.0003614.5659039.0984704 1.127493.29 1.66.0392508.1090803.0595438.2240736.06.34h-2.05c-.2008918-.6475849-.3020502-1.3219738-.3-2 0-1.6568542 1.3431458-3 3-3s3 1.3431458 3 3z"/><path id="Shape" d="m32 52h-12c-.5522847 0-1-.4477153-1-1s.4477153-1 1-1h12c.5522847 0 1 .4477153 1 1s-.4477153 1-1 1z"/></g></g></g></svg>