<svg id="Layer_3" enable-background="new 0 0 64 64" height="512" viewBox="0 0 64 64" width="512" xmlns="http://www.w3.org/2000/svg"><path d="m2 58h60v4h-60z" fill="#c18e59"/><path d="m10 58v-4h44v4" fill="#976947"/><path d="m45 54v-8h7v-7c0-4.418-3.582-8-8-8-2.96 0-5.561-1.962-6.374-4.808l-.626-2.192v-.798c0-2.024.92-3.937 2.5-5.202 1.58-1.264 2.5-3.178 2.5-5.202v-1.798c0-4.971-4.029-9-9-9h-1c-4.971 0-9 4.029-9 9l-2 6h2v5h4v2l-.626 2.192c-.813 2.846-3.414 4.808-6.374 4.808-4.418 0-8 3.582-8 8v7h7v8" fill="#c7e2fc"/><path d="m19 46.766c9.257-3.595 16-14.663 16-27.766 0-6.311-1.569-12.147-4.225-16.907-4.39.599-7.775 4.353-7.775 8.907l-2 6h2v5h4v2l-.626 2.192c-.813 2.846-3.414 4.808-6.374 4.808-4.418 0-8 3.582-8 8v7h7z" fill="#ebf7fe"/><path d="m18 41h2v13h-2z"/><path d="m44 41h2v13h-2z"/><path d="m26.171 49h-7.171v-2h7.171c1.557 0 3.021-.606 4.122-1.707l1.414 1.414c-1.479 1.479-3.445 2.293-5.536 2.293z"/><path d="m45 49h-7.171c-2.091 0-4.057-.814-5.536-2.293l1.414-1.414c1.101 1.101 2.565 1.707 4.122 1.707h7.171z"/><path d="m52 47h-7v-2h6v-6c0-3.859-3.14-7-7-7-3.388 0-6.404-2.275-7.335-5.533l-.626-2.192c-.026-.089-.039-.182-.039-.275v-.798c0-2.34 1.048-4.521 2.875-5.982 1.351-1.081 2.125-2.693 2.125-4.422v-1.798c0-4.411-3.589-8-8-8h-1c-4.411 0-8 3.589-8 8 0 .107-.017.214-.051.316l-1.562 4.684h.613c.552 0 1 .448 1 1v4h3c.552 0 1 .448 1 1v2c0 .093-.013.186-.039.275l-.626 2.192c-.931 3.258-3.947 5.533-7.335 5.533-3.86 0-7 3.141-7 7v6h6v2h-7c-.552 0-1-.447-1-1v-7c0-4.963 4.038-9 9-9 2.5 0 4.725-1.679 5.412-4.083l.588-2.057v-.86h-3c-.552 0-1-.448-1-1v-4h-1c-.321 0-.623-.154-.811-.416-.188-.261-.239-.596-.138-.901l1.95-5.85c.089-5.437 4.541-9.833 9.999-9.833h1c5.514 0 10 4.486 10 10v1.798c0 2.34-1.048 4.521-2.875 5.982-1.351 1.081-2.125 2.693-2.125 4.422v.658l.588 2.058c.687 2.403 2.912 4.082 5.412 4.082 4.962 0 9 4.037 9 9v7c0 .553-.448 1-1 1z"/><path d="m55 58h-2v-3h-42v3h-2v-4c0-.553.448-1 1-1h44c.552 0 1 .447 1 1z"/><path d="m62 63h-60c-.552 0-1-.447-1-1v-4c0-.553.448-1 1-1h60c.552 0 1 .447 1 1v4c0 .553-.448 1-1 1zm-59-2h58v-2h-58z"/><path d="m34.895 37.447-1.789-.895.149-.298c1.307-2.614 3.683-4.52 6.519-5.229l3.984-.996.485 1.94-3.984.996c-2.269.567-4.169 2.091-5.215 4.183z"/><path d="m29.105 37.447-.149-.298c-1.045-2.092-2.946-3.616-5.215-4.183l-3.984-.996.485-1.94 3.984.996c2.835.709 5.211 2.615 6.519 5.229l.149.298z"/></svg>