<svg id="Capa_1" enable-background="new 0 0 512 512" height="512" viewBox="0 0 512 512" width="512" xmlns="http://www.w3.org/2000/svg"><path d="m511.967 251.849c1.335 84.287-38.072 159.428-99.817 207.021l-71.65 12.825c-55.838 9.995-113.055 9.425-168.682-1.678l-77.388-15.447c-57.62-46.93-94.43-118.45-94.43-198.57 0-141.306 114.5-255.88 255.778-256 139.458-.119 253.98 112.408 256.189 251.849z" fill="#374c81"/><path d="m512 256c0 82.59-39.12 156.06-99.85 202.87l-71.65 12.825c-55.838 9.995-113.055 9.425-168.682-1.678l-77.388-15.447c-57.62-46.94-94.43-118.46-94.43-198.57 0-46.22 12.25-89.57 33.68-127 44.12 77.07 127.16 129 222.32 129s178.21-51.93 222.32-129c21.43 37.43 33.68 80.78 33.68 127z" fill="#234177"/><path d="m342.12 183.468c1.396 3.046 2.186 6.425 2.186 9.987 0 11.596-8.257 21.259-19.205 23.444-1.366.263-2.54 1.012-3.38 2.024-.83 1.022-1.315 2.327-1.315 3.723 0 13.194-10.705 23.9-23.899 23.9h-82.252c-6.597 0-12.567-2.671-16.898-7.002s-7.002-10.3-7.002-16.898c0-2.793-1.953-5.211-4.695-5.747-10.948-2.186-19.205-11.848-19.205-23.444 0-3.562.789-6.941 2.186-9.987 2.105-4.563 2.105-9.815 0-14.378-1.396-3.035-2.186-6.415-2.186-9.977 0-6.789 2.833-12.921 7.376-17.262 4.128-3.946 6.071-9.552 5.282-15.198-.152-1.093-.233-2.216-.233-3.359.02-13.073 10.827-23.869 23.899-23.869h.293c6 .071 11.656-2.843 14.854-7.922 4.229-6.709 11.707-11.181 20.226-11.181 3.582 0 6.972.789 10.007 2.196 2.408 1.113 4.998 1.639 7.579 1.579 2.347-.041 4.685-.567 6.86-1.579 3.035-1.406 6.425-2.196 10.007-2.196 8.52 0 15.997 4.472 20.226 11.181 3.197 5.079 8.854 7.993 14.854 7.922h.293c13.073 0 23.879 10.796 23.899 23.869 0 1.143-.081 2.266-.233 3.359-.789 5.646 1.153 11.251 5.282 15.198 4.543 4.341 7.376 10.472 7.376 17.262 0 3.562-.789 6.941-2.186 9.977-2.101 4.564-2.101 9.815.004 14.378z" fill="#f7e6b0"/><path d="m342.12 183.468c1.396 3.046 2.186 6.425 2.186 9.987 0 11.596-8.257 21.259-19.205 23.444-1.366.263-2.54 1.012-3.38 2.024-.83 1.022-1.315 2.327-1.315 3.723 0 13.194-10.705 23.9-23.899 23.9h-40.767v-162.449c2.347-.041 4.685-.567 6.86-1.579 3.035-1.406 6.425-2.196 10.007-2.196 8.52 0 15.997 4.472 20.226 11.181 3.197 5.079 8.854 7.993 14.854 7.922h.293c13.073 0 23.879 10.796 23.899 23.869 0 1.143-.081 2.266-.233 3.359-.789 5.646 1.153 11.251 5.282 15.198 4.543 4.341 7.376 10.472 7.376 17.262 0 3.562-.789 6.941-2.186 9.977-2.103 4.564-2.103 9.815.002 14.378z" fill="#f9d19a"/><path d="m412.15 381.1v77.77c-43.21 33.31-97.37 53.13-156.15 53.13h-.26c-61.17-.06-117.31-21.58-161.31-57.43v-73.47c0-20.77 11.34-39.89 29.56-49.85 0 0 13.89-7.61 14.32-7.83l51.86-26.59c7.9-4.03 14.39-10.05 19.01-17.26s7.36-15.62 7.75-24.47l1.98-46.26h72.87l1.95 45.43.06 1.57c.75 17.32 10.54 32.96 25.78 41.21l54.17 29.34c.5.27.98.56 1.46.85l7.38 4.01c18.23 9.96 29.57 29.08 29.57 49.85z" fill="#fff"/><path d="m412.15 381.1v77.77c-43.21 33.31-97.37 53.13-156.15 53.13h-.26v-303.16h36.04l1.95 45.43.06 1.57c.75 17.32 10.54 32.96 25.78 41.21l63.01 34.2c18.23 9.96 29.57 29.08 29.57 49.85z" fill="#fdf7bd"/><path d="m293.754 254.276c-.01.01-.01.02-.02.03-2.934 4.321-6.132 8.59-9.542 12.84-4.776 5.96-12 9.42-19.63 9.42h-18.385c-7.629 0-14.854-3.46-19.64-9.42-3.44-4.28-6.638-8.176-9.602-12.051l1.993-46.261h72.872z" fill="#f7e6b0"/><path d="m293.734 254.266v.041c-2.934 4.321-6.132 8.59-9.542 12.84-4.776 5.96-12 9.42-19.63 9.42h-8.823v-67.732h36.041z" fill="#f9d19a"/><path d="m289.252 421.643c-14.702 0-27.896-8.843-33.512-22.331-.172-.395-.324-.789-.476-1.194-2.661 7.083-7.386 12.961-13.326 17.07-5.939 4.118-13.113 6.455-20.672 6.455h-72.456l.567 1.477c2.438 6.344 4.584 12.769 6.445 19.275 9.309-.01 54.629-.02 99.918-.02 45.209 0 90.397.01 99.686.01h.03c2.064-7.012 4.482-13.933 7.214-20.743h-73.418z" fill="#fdf7bd"/><path d="m362.65 421.643c-2.742 6.81-5.15 13.73-7.224 20.743-9.289 0-54.477-.01-99.686-.01v-43.063c5.616 13.488 18.81 22.331 33.512 22.331h73.398z" fill="#f9d19a"/><path d="m306.463 318.376c-14.085 7.619-31.66 12.152-50.723 12.152s-36.638-4.533-50.723-12.152z" fill="#f7e6b0"/><path d="m306.463 318.376c-14.085 7.619-31.66 12.152-50.723 12.152v-12.152z" fill="#f9d19a"/><path d="m301.626 168.405h15.266c5.674 0 10.275 4.6 10.275 10.275v1.371c0 9.807-3.237 19.34-9.209 27.119l-1.004 1.308c-1.618 2.107-4.123 3.343-6.78 3.343-4.721 0-8.547-3.827-8.547-8.547v-34.869z" fill="#f7e6b0"/><path d="m209.136 168.405h-15.266c-5.674 0-10.274 4.6-10.274 10.275v1.371c0 9.807 3.237 19.34 9.209 27.119l1.004 1.308c1.618 2.107 4.123 3.343 6.78 3.343 4.721 0 8.547-3.827 8.547-8.547z" fill="#fdf7bd"/><path d="m312.018 168.382c-1.761 29.677-12.83 52.079-30.325 73.864-4.361 5.433-10.948 8.601-17.92 8.601h-16.786c-6.961 0-13.558-3.167-17.919-8.601-9.562-11.909-17.211-20.662-22.463-35.313-4.351-12.162-7.063-25.103-7.862-38.571 4.776-.425 8.499-4.432 8.499-9.309v-.476c0-.678.03-1.346.091-2.003.192-2.347 2.145-4.098 4.493-4.088h.041c7.103 0 12.992-5.12 14.216-11.869 2.317 1.578 5.11 2.499 8.125 2.499 4.128 0 7.832-1.74 10.462-4.503 2.641 2.762 6.344 4.503 10.472 4.503.202 0 .395 0 .597-.02 3.885-.152 7.366-1.852 9.865-4.482 2.641 2.762 6.344 4.503 10.472 4.503 3.015 0 5.808-.921 8.125-2.499 1.224 6.749 7.113 11.869 14.216 11.869h.273c2.358-.051 4.31 1.73 4.503 4.078.061.668.091 1.336.091 2.014v.476c.002 4.966 3.857 9.013 8.734 9.327z" fill="#fff"/><path d="m312.018 168.382c-1.761 29.677-12.83 52.079-30.325 73.864-4.361 5.433-10.948 8.601-17.92 8.601h-8.034v-107.75c3.885-.152 7.366-1.852 9.865-4.482 2.641 2.762 6.344 4.503 10.472 4.503 3.015 0 5.808-.921 8.125-2.499 1.224 6.749 7.113 11.869 14.216 11.869h.273c2.358-.051 4.31 1.73 4.503 4.078.061.668.091 1.336.091 2.014v.476c.002 4.965 3.857 9.012 8.734 9.326z" fill="#fdf7bd"/><g fill="#f9d19a"><path d="m264.297 212.837h-8.198c-5.921 0-10.738-4.817-10.738-10.739v-21.818c0-3.412-2.776-6.188-6.188-6.188h-20.583v-8h20.582c7.823 0 14.188 6.365 14.188 14.188v21.818c0 1.51 1.229 2.739 2.738 2.739h8.198v8z"/><path d="m265.693 166.092h27.899v8h-27.899z"/><path d="m229.914 194.402c5.454 0 9.875-4.421 9.875-9.875h-19.75c0 5.454 4.421 9.875 9.875 9.875z"/><path d="m283.717 194.402c5.454 0 9.875-4.421 9.875-9.875h-19.75c0 5.454 4.422 9.875 9.875 9.875z"/><path d="m269.524 230.621c-2.635-5.133-7.977-8.647-14.143-8.647s-11.508 3.514-14.143 8.647z"/></g><path d="m389.55 337.6-106.34 172.97c-8.94.94-18.02 1.43-27.21 1.43h-.26c-12.55-.01-24.89-.93-36.96-2.69-20.07-2.93-39.39-8.18-57.67-15.48l160.94-200.42c2.84-3.53 7.89-4.35 11.7-1.91l25.39 16.27 27.64 17.72c4.07 2.61 5.3 7.99 2.77 12.11z" fill="#f7e6b0"/><path d="m389.55 337.6-106.34 172.97c-8.94.94-18.02 1.43-27.21 1.43h-.26c-12.55-.01-24.89-.93-36.96-2.69l140.36-201.54 27.64 17.72c4.07 2.61 5.3 7.99 2.77 12.11z" fill="#f9d19a"/></svg>