<svg width="750" height="448" viewBox="0 0 750 448" fill="none" xmlns="http://www.w3.org/2000/svg">
<path d="M209.672 272.797C209.484 273.547 209.391 274.297 209.391 275.047C209.484 275.703 209.438 276.172 209.25 276.453C209.156 276.734 208.828 276.688 208.266 276.312C207.703 275.844 206.719 274.859 205.312 273.359L201.656 272.234L200.109 273.781C199.828 274.062 199.547 274.297 199.266 274.484C198.516 275.141 197.812 275.234 197.156 274.766C196.594 274.203 195.844 273.547 194.906 272.797C194.156 272.141 193.594 271.719 193.219 271.531C192.938 271.344 192.75 271.344 192.656 271.531C192.656 271.625 192.656 271.953 192.656 272.516C192.75 272.984 192.75 273.547 192.656 274.203C192.656 274.484 192.422 275 191.953 275.75C191.484 276.406 191.25 276.875 191.25 277.156C191.062 278 190.781 278.281 190.406 278C190.031 277.719 189.656 277.625 189.281 277.719C189.094 277.719 188.812 277.625 188.438 277.438C188.156 277.25 187.781 276.969 187.312 276.594C186.938 276.219 186.516 275.609 186.047 274.766C185.672 273.828 185.344 273.078 185.062 272.516C184.781 271.859 184.5 271.203 184.219 270.547C183.938 269.891 183.609 269.094 183.234 268.156C182.953 267.219 182.625 266 182.25 264.5C181.969 263 181.594 260.234 181.125 256.203C180.656 252.172 180.141 247.344 179.578 241.719C179.016 236 178.359 229.625 177.609 222.594C176.953 215.562 176.25 208.203 175.5 200.516C174.844 192.828 174.141 185.047 173.391 177.172C172.641 169.203 171.938 161.516 171.281 154.109C170.625 146.609 170.016 139.531 169.453 132.875C168.891 126.219 168.375 120.359 167.906 115.297L110.25 259.016C109.125 261.734 107.812 264.219 106.312 266.469C104.812 268.625 103.266 270.406 101.672 271.812C100.172 273.125 98.6719 274.016 97.1719 274.484C95.7656 274.953 94.5938 274.859 93.6562 274.203C92.25 273.266 91.0781 272.141 90.1406 270.828C89.2969 269.422 88.5469 267.969 87.8906 266.469C87.3281 264.875 86.8125 263.234 86.3438 261.547C85.875 259.859 85.3125 258.125 84.6562 256.344C83.7188 253.625 82.5 249.266 81 243.266C79.5938 237.266 77.9531 230.281 76.0781 222.312C74.2031 214.25 72.2344 205.484 70.1719 196.016C68.1094 186.453 66 176.797 63.8438 167.047C61.6875 157.203 59.5781 147.594 57.5156 138.219C55.5469 128.75 53.6719 120.031 51.8906 112.062C51.4219 115.344 50.6719 120.125 49.6406 126.406C48.6094 132.594 47.3906 139.719 45.9844 147.781C44.6719 155.75 43.2188 164.328 41.625 173.516C40.0312 182.703 38.4375 191.891 36.8438 201.078C35.3438 210.266 33.8438 219.172 32.3438 227.797C30.9375 236.422 29.625 244.203 28.4062 251.141C27.2812 258.078 26.2969 263.844 25.4531 268.438C24.7031 272.938 24.2812 275.75 24.1875 276.875C24.1875 277.719 24 278.609 23.625 279.547C23.3438 280.297 22.9219 281.094 22.3594 281.938C21.8906 282.875 21.2344 283.766 20.3906 284.609C19.6406 284.891 18.8906 285.172 18.1406 285.453C17.3906 285.734 16.7344 285.734 16.1719 285.453C15.5156 285.172 15.1406 284.656 15.0469 283.906C14.9531 283.25 14.4375 282.641 13.5 282.078C12.9375 281.609 12.3281 281.234 11.6719 280.953C11.0156 280.766 10.4062 280.156 9.84375 279.125C9.84375 278.469 9.75 277.953 9.5625 277.578C9.46875 277.391 9.375 277.25 9.28125 277.156C9.1875 277.062 9.04688 276.875 8.85938 276.594C8.67188 276.312 8.10938 275.703 7.17188 274.766C6.60938 273.641 6.1875 272.422 5.90625 271.109C5.71875 269.703 5.85938 267.969 6.32812 265.906C6.51562 265.25 6.89062 263.562 7.45312 260.844C8.01562 258.031 8.67188 254.656 9.42188 250.719C10.2656 246.688 11.1562 242.281 12.0938 237.5C13.0312 232.625 13.9688 227.703 14.9062 222.734C15.8438 217.766 16.6875 212.984 17.4375 208.391C18.2812 203.797 18.9844 199.719 19.5469 196.156C20.1094 193.062 21 188.703 22.2188 183.078C23.5312 177.359 25.0312 171.031 26.7188 164.094C28.4062 157.156 30.1875 149.891 32.0625 142.297C34.0312 134.703 35.9062 127.391 37.6875 120.359C39.4688 113.234 41.0625 106.719 42.4688 100.812C43.9688 94.8125 45.0938 90.0312 45.8438 86.4688C45.6562 86 45.5156 85.5312 45.4219 85.0625C45.3281 84.5938 45.2812 84.125 45.2812 83.6562C44.9062 82.7187 44.9531 82.2031 45.4219 82.1094C45.9844 82.0156 46.4062 81.8281 46.6875 81.5469C46.6875 81.3594 46.7344 81.2188 46.8281 81.125C46.9219 81.0312 46.9688 80.8906 46.9688 80.7031C46.9688 80.1406 47.0625 79.8594 47.25 79.8594C47.25 78.6406 47.4375 77.8438 47.8125 77.4688C48.1875 77.0937 48.5625 76.8594 48.9375 76.7656C49.4062 76.6719 49.8281 76.625 50.2031 76.625C50.5781 76.625 50.8125 76.3438 50.9062 75.7812C51.0938 74.5625 51.2812 73.7656 51.4688 73.3906C51.75 72.9219 52.0312 72.7344 52.3125 72.8281C52.6875 72.8281 53.1562 73.0156 53.7188 73.3906C54.2812 73.6719 54.9844 74 55.8281 74.375C56.2969 74.5625 56.6719 74.6562 56.9531 74.6562C57.3281 74.5625 57.7031 74.5625 58.0781 74.6562C58.4531 74.6562 58.875 74.75 59.3438 74.9375C59.9062 75.125 60.5625 75.5 61.3125 76.0625C61.875 76.5312 62.3438 76.7656 62.7188 76.7656C63.1875 76.7656 63.5625 76.625 63.8438 76.3438C64.2188 76.0625 64.5 75.7344 64.6875 75.3594C64.9688 74.9844 65.2031 74.6562 65.3906 74.375C65.6719 73.9063 66.0938 73.6719 66.6562 73.6719C67.2188 73.6719 67.7344 73.9063 68.2031 74.375C68.7656 75.125 69.1875 75.6406 69.4688 75.9219C69.8438 76.2031 70.0781 76.4375 70.1719 76.625C70.3594 76.7188 70.4531 76.8125 70.4531 76.9062C70.4531 76.9062 70.5 77.0469 70.5938 77.3281C72 81.5469 73.2188 85.9531 74.25 90.5469C75.375 95.1406 76.5 100.391 77.625 106.297C78.8438 112.203 80.25 119.047 81.8438 126.828C83.4375 134.516 85.4531 143.609 87.8906 154.109C91.9219 171.922 95.4375 186.922 98.4375 199.109C101.438 211.203 103.969 220.297 106.031 226.391C107.906 222.078 110.156 216.828 112.781 210.641C115.5 204.453 118.359 197.75 121.359 190.531C124.359 183.219 127.5 175.672 130.781 167.891C134.062 160.016 137.297 152.234 140.484 144.547C143.672 136.859 146.719 129.5 149.625 122.469C152.625 115.438 155.25 109.109 157.5 103.484C159.844 97.8594 161.812 93.125 163.406 89.2812C165 85.4375 166.031 82.9531 166.5 81.8281C167.062 80.5156 167.484 79.4375 167.766 78.5938C168.141 77.75 168.562 77.0937 169.031 76.625C169.312 75.875 169.688 75.3594 170.156 75.0781C170.719 74.7031 171.328 74.6562 171.984 74.9375C172.172 75.125 172.406 75.2656 172.688 75.3594C172.875 75.5469 173.062 75.6875 173.25 75.7812C173.531 75.7812 173.766 75.875 173.953 76.0625C174.047 75.5938 174.234 75.3594 174.516 75.3594C174.797 75.2656 175.125 75.2188 175.5 75.2188C175.875 75.3125 176.297 75.4062 176.766 75.5H177.188H177.75C178.031 75.3125 178.312 75.1719 178.594 75.0781C178.875 74.8906 179.156 74.9375 179.438 75.2188C180.281 75.6875 180.844 75.7344 181.125 75.3594C181.5 74.8906 182.062 74.6562 182.812 74.6562C183.281 74.6562 183.703 74.6094 184.078 74.5156C184.359 74.4219 184.641 74.3281 184.922 74.2344C185.203 74.0469 185.391 73.8125 185.484 73.5312C185.859 73.5312 186.141 73.5781 186.328 73.6719C186.609 73.7656 186.844 73.8594 187.031 73.9531L187.453 74.375C187.734 74.75 188.156 76.3906 188.719 79.2969C189.281 82.1094 189.891 85.625 190.547 89.8438C191.297 93.9687 192 98.4687 192.656 103.344C193.406 108.219 194.062 112.859 194.625 117.266C194.812 118.766 195.188 122.094 195.75 127.25C196.312 132.312 196.969 138.547 197.719 145.953C198.469 153.266 199.312 161.422 200.25 170.422C201.188 179.422 202.125 188.516 203.062 197.703C204 206.891 204.891 215.891 205.734 224.703C206.578 233.422 207.281 241.25 207.844 248.188C208.5 255.125 208.969 260.844 209.25 265.344C209.625 269.75 209.766 272.234 209.672 272.797ZM321.188 277.156C321.188 278 320.484 279.031 319.078 280.25C317.672 281.469 315.891 282.078 313.734 282.078C313.078 282.078 311.859 281.75 310.078 281.094C308.391 280.438 306.609 279.453 304.734 278.141C302.859 276.922 301.172 275.422 299.672 273.641C298.172 271.766 297.375 269.656 297.281 267.312C297.094 266.281 297 264.875 297 263.094C297 261.219 297 259.062 297 256.625C297 252.875 297 248.703 297 244.109C297 239.516 297.094 234.875 297.281 230.188C296.625 233.562 295.828 237.078 294.891 240.734C293.953 244.297 292.781 247.859 291.375 251.422C289.969 254.984 288.328 258.5 286.453 261.969C284.578 265.438 282.422 268.766 279.984 271.953C278.672 273.641 277.266 275.094 275.766 276.312C274.359 277.438 272.953 278.375 271.547 279.125C270.141 279.969 268.828 280.578 267.609 280.953C266.391 281.328 265.453 281.516 264.797 281.516C264.422 281.516 263.531 281.094 262.125 280.25C260.812 279.5 259.219 278.516 257.344 277.297C255.562 275.984 253.641 274.578 251.578 273.078C249.516 271.484 247.547 269.938 245.672 268.438C243.797 266.844 242.109 265.391 240.609 264.078C239.109 262.672 238.031 261.547 237.375 260.703C236.719 259.766 236.109 258.172 235.547 255.922C235.078 253.672 234.656 250.906 234.281 247.625C233.906 244.344 233.578 240.641 233.297 236.516C233.109 232.391 233.016 227.984 233.016 223.297C233.016 220.766 233.062 217.484 233.156 213.453C233.25 209.422 233.438 205.109 233.719 200.516C234 195.828 234.328 191.141 234.703 186.453C235.172 181.672 235.688 177.406 236.25 173.656C236.906 169.812 237.656 166.719 238.5 164.375C239.344 161.938 240.328 160.719 241.453 160.719C242.203 160.719 243.516 160.953 245.391 161.422C247.266 161.797 249.188 161.984 251.156 161.984C254.062 161.984 256.078 161.75 257.203 161.281C258.422 160.719 259.312 160.438 259.875 160.438C260.812 160.438 261.281 161.234 261.281 162.828C261.281 163.297 261.281 163.766 261.281 164.234C261.281 164.609 261.188 165.078 261 165.641C260.906 166.203 260.672 167.656 260.297 170C260.016 172.344 259.641 175.344 259.172 179C258.703 182.656 258.234 186.781 257.766 191.375C257.297 195.875 256.828 200.609 256.359 205.578C255.984 210.547 255.656 215.562 255.375 220.625C255.094 225.688 254.953 230.516 254.953 235.109C254.953 238.203 255 241.297 255.094 244.391C255.281 247.484 255.562 250.297 255.938 252.828C256.312 255.359 256.828 257.422 257.484 259.016C258.141 260.516 258.938 261.266 259.875 261.266C260.719 261.266 261.891 260.891 263.391 260.141C264.984 259.297 266.812 257.656 268.875 255.219C271.031 252.781 273.375 249.312 275.906 244.812C278.438 240.312 281.156 234.359 284.062 226.953C287.062 219.453 290.156 210.312 293.344 199.531C296.625 188.656 299.953 175.719 303.328 160.719C303.328 160.438 303.469 160.25 303.75 160.156C304.125 159.969 304.547 159.875 305.016 159.875C306.234 159.875 307.781 160.016 309.656 160.297C311.531 160.484 313.312 160.812 315 161.281C316.781 161.656 318.281 162.125 319.5 162.688C320.812 163.25 321.469 163.859 321.469 164.516C321.469 168.734 321.281 173.328 320.906 178.297C320.531 183.266 320.109 188.422 319.641 193.766C319.172 199.016 318.75 204.406 318.375 209.938C318 215.469 317.812 220.953 317.812 226.391C317.812 236.141 318.094 245.469 318.656 254.375C319.312 263.188 320.156 270.781 321.188 277.156ZM433.125 167.469C433.406 168.031 433.547 168.594 433.547 169.156C433.641 169.719 433.688 170.375 433.688 171.125C433.688 174.125 432.094 177.266 428.906 180.547C425.812 183.828 420.891 186.828 414.141 189.547C412.734 190.109 411.469 190.391 410.344 190.391C408.938 190.391 407.719 190.016 406.688 189.266C405.75 188.422 405.281 187.578 405.281 186.734C405.281 186.172 405.609 185.516 406.266 184.766C407.016 184.016 407.766 183.266 408.516 182.516C409.359 181.766 410.109 181.062 410.766 180.406C411.516 179.75 411.891 179.234 411.891 178.859C411.891 178.109 411.281 177.734 410.062 177.734C408.188 177.734 405.797 178.297 402.891 179.422C399.984 180.453 396.891 181.859 393.609 183.641C390.422 185.328 387.141 187.203 383.766 189.266C380.484 191.234 377.531 193.203 374.906 195.172C372.281 197.047 370.125 198.734 368.438 200.234C366.844 201.734 366.047 202.812 366.047 203.469C366.047 203.844 366.422 204.031 367.172 204.031H371.25C373.781 204.031 377.016 204.172 380.953 204.453C384.984 204.734 389.203 205.297 393.609 206.141C398.016 206.891 402.422 208.016 406.828 209.516C411.328 210.922 415.312 212.844 418.781 215.281C422.344 217.719 425.25 220.672 427.5 224.141C429.75 227.609 430.875 231.734 430.875 236.516C430.875 238.953 430.453 241.578 429.609 244.391C428.859 247.109 427.453 249.922 425.391 252.828C423.422 255.641 420.703 258.547 417.234 261.547C413.766 264.453 409.359 267.359 404.016 270.266C395.953 274.578 388.406 277.766 381.375 279.828C374.438 281.891 368.156 282.922 362.531 282.922C355.219 282.922 349.453 281.281 345.234 278C341.016 274.719 338.906 270.031 338.906 263.938C338.906 259.438 339.75 255.594 341.438 252.406C343.219 249.219 345.281 246.594 347.625 244.531C349.969 242.375 352.312 240.828 354.656 239.891C357 238.859 358.781 238.297 360 238.203C360.562 238.203 361.031 238.156 361.406 238.062C361.875 237.969 362.344 237.922 362.812 237.922C363.656 237.922 364.078 238.438 364.078 239.469V240.875C364.078 241.438 364.219 241.953 364.5 242.422C364.781 242.797 364.922 243.219 364.922 243.688C364.922 244.25 364.219 245.094 362.812 246.219C361.5 247.344 360.047 248.656 358.453 250.156C356.859 251.656 355.359 253.25 353.953 254.938C352.641 256.625 351.984 258.266 351.984 259.859C351.984 261.734 353.484 262.672 356.484 262.672C360.234 262.672 364.172 261.969 368.297 260.562C372.516 259.062 376.594 257.188 380.531 254.938C384.562 252.688 388.359 250.156 391.922 247.344C395.578 244.438 398.766 241.625 401.484 238.906C404.203 236.188 406.359 233.656 407.953 231.312C409.547 228.875 410.344 226.953 410.344 225.547C410.344 223.859 409.359 222.5 407.391 221.469C405.516 220.438 402.891 219.594 399.516 218.938C396.234 218.281 392.391 217.859 387.984 217.672C383.578 217.391 378.938 217.25 374.062 217.25C369 217.25 364.781 217.484 361.406 217.953C358.125 218.422 356.109 218.656 355.359 218.656C354.797 218.656 353.859 218.609 352.547 218.516C351.328 218.328 350.062 217.906 348.75 217.25C347.531 216.5 346.453 215.422 345.516 214.016C344.578 212.609 344.109 210.594 344.109 207.969C344.109 206.188 344.484 204.172 345.234 201.922C346.078 199.672 347.484 197.281 349.453 194.75C351.516 192.125 354.281 189.312 357.75 186.312C361.312 183.312 365.812 180.172 371.25 176.891C376.969 173.422 382.312 170.609 387.281 168.453C392.344 166.203 396.891 164.469 400.922 163.25C405.047 162.031 408.656 161.234 411.75 160.859C414.844 160.391 417.281 160.156 419.062 160.156C423.281 160.156 426.422 160.719 428.484 161.844C430.547 162.875 432.094 164.75 433.125 167.469ZM543.516 226.672C543.516 227.703 543.562 228.922 543.656 230.328C543.75 231.734 543.797 233.328 543.797 235.109C543.797 237.359 543.469 240.172 542.812 243.547C542.156 246.828 541.078 250.297 539.578 253.953C538.172 257.609 536.25 261.266 533.812 264.922C531.375 268.578 528.375 271.859 524.812 274.766C521.25 277.672 517.031 280.016 512.156 281.797C507.375 283.672 501.891 284.609 495.703 284.609C490.172 284.609 484.5 283.531 478.688 281.375C472.969 279.312 467.719 276.078 462.938 271.672C458.25 267.172 454.359 261.5 451.266 254.656C448.266 247.719 446.766 239.469 446.766 229.906C446.766 223.906 447.516 218 449.016 212.188C450.609 206.375 452.672 200.891 455.203 195.734C457.828 190.578 460.875 185.844 464.344 181.531C467.906 177.125 471.609 173.375 475.453 170.281C479.391 167.094 483.422 164.609 487.547 162.828C491.766 161.047 495.844 160.156 499.781 160.156C506.625 160.156 512.25 161.234 516.656 163.391C521.156 165.547 524.719 168.219 527.344 171.406C529.969 174.594 531.797 178.016 532.828 181.672C533.953 185.234 534.516 188.469 534.516 191.375C534.516 194.188 533.812 197.422 532.406 201.078C531.094 204.641 528.891 208.062 525.797 211.344C522.703 214.531 518.672 217.25 513.703 219.5C508.734 221.656 502.641 222.734 495.422 222.734C491.578 222.734 488.109 222.219 485.016 221.188C482.016 220.062 479.344 218.703 477 217.109C474.656 215.422 472.641 213.641 470.953 211.766C469.359 209.797 468 207.969 466.875 206.281C465.188 212.094 464.344 218.891 464.344 226.672C464.344 232.016 465.094 236.844 466.594 241.156C468.188 245.375 470.344 248.984 473.062 251.984C475.781 254.984 479.016 257.281 482.766 258.875C486.516 260.469 490.641 261.266 495.141 261.266C500.766 261.266 505.688 260.328 509.906 258.453C514.125 256.484 517.781 254.047 520.875 251.141C524.062 248.234 526.781 245.094 529.031 241.719C531.375 238.25 533.391 235.109 535.078 232.297C536.766 229.391 538.219 227 539.438 225.125C540.75 223.25 542.016 222.359 543.234 222.453C543.797 222.453 544.078 222.922 544.078 223.859C544.078 224.328 544.031 224.797 543.938 225.266C543.844 225.734 543.703 226.203 543.516 226.672ZM501.188 174.359C499.5 174.359 497.297 174.734 494.578 175.484C491.953 176.141 489.141 177.359 486.141 179.141C483.234 180.922 480.328 183.359 477.422 186.453C474.516 189.453 471.984 193.297 469.828 197.984C471.141 197.328 472.266 196.766 473.203 196.297C474.234 195.828 474.938 195.594 475.312 195.594C475.5 195.594 475.781 195.781 476.156 196.156C478.312 199.812 480.984 202.438 484.172 204.031C487.453 205.531 491.109 206.281 495.141 206.281C498.328 206.281 501.047 205.766 503.297 204.734C505.641 203.609 507.562 202.203 509.062 200.516C510.562 198.828 511.641 197 512.297 195.031C512.953 192.969 513.281 190.953 513.281 188.984C513.281 184.766 512.203 181.297 510.047 178.578C507.891 175.766 504.938 174.359 501.188 174.359Z" fill="#42075B"/>
<path fill-rule="evenodd" clip-rule="evenodd" d="M465.487 318.316C470.781 325.092 481.099 338.662 511.733 328.447C542.35 318.253 558.836 337.779 558.836 337.779C559.844 338.757 560.576 339.763 561.369 340.765C600.601 336.417 709.432 318.71 718.429 318.135C731.325 317.336 735.531 312.985 739.714 331.025C741.796 340.005 743.651 347.987 739.714 331.025C730.642 331.594 612.141 366.994 566.303 362.23C565.993 363.775 565.441 365.229 564.664 366.551C536.3 405.568 489.575 368.443 480.701 359.685C464.855 344.093 460.178 311.561 465.487 318.316Z" fill="#42075B"/>
<path d="M639.5 241L648.125 220.067V166.247C662.969 161.568 674 145.314 674 125.867C674 102.777 658.527 84 639.5 84C620.473 84 605 102.777 605 125.867C605 145.314 616.031 161.568 630.875 166.247V220.067L639.5 241Z" fill="#42075B"/>
<path d="M676.41 174.01L671.799 194.238C694.211 201.75 708.7 216.196 708.7 231.052C708.7 250.902 680.285 273.017 639.5 273.017C598.715 273.017 570.3 250.902 570.3 231.052C570.3 216.196 584.789 201.75 607.21 194.227L602.599 174C572.004 184.261 553 206.114 553 231.052C553 266.345 590.999 294 639.5 294C688.001 294 726 266.345 726 231.052C726 206.114 706.996 184.261 676.41 174.01V174.01Z" fill="#42075B"/>
</svg>
