<svg id="Layer_1" enable-background="new 0 0 256 256" height="512" viewBox="0 0 256 256" width="512" xmlns="http://www.w3.org/2000/svg"><path d="m247.615 25.51-17.125-17.125c-5.858-5.858-15.355-5.858-21.213 0l-30.35 30.35 38.339 38.339 30.35-30.35c5.857-5.858 5.857-15.356-.001-21.214z" fill="#ff4397"/><path d="m247.586 25.48-6.612-6.612c5.874 5.874 5.874 15.399 0 21.273l-30.32 30.32 6.612 6.612 30.32-30.32c5.874-5.874 5.874-15.398 0-21.273z" fill="#e12579"/><path d="m230.52 8.415 6.612 6.612c-5.874-5.874-15.399-5.874-21.273 0l-30.32 30.32-6.612-6.612 30.32-30.32c5.874-5.875 15.398-5.875 21.273 0z" fill="#ff61b5"/><path d="m196.016 25.773h14.202v54.219h-14.202z" fill="#fcc24c" transform="matrix(.707 -.707 .707 .707 22.098 159.114)"/><path d="m18.024 199.637 38.339 38.339-52.372 14.033z" fill="#fcc24c"/><path d="m11.951 222.301 21.748 21.748-29.708 7.96z" fill="#690589"/><path d="m90.535 24.58h54.219v227.55h-54.219z" fill="#f4efed" transform="matrix(.707 .707 -.707 .707 132.289 -42.664)"/><path d="m19.733 149.543h227.55v9.351h-227.55z" fill="#d6d1cf" transform="matrix(.707 -.707 .707 .707 -69.946 139.574)"/><path d="m-11.994 117.817h227.55v9.351h-227.55z" fill="#fff" transform="matrix(.707 -.707 .707 .707 -56.804 107.848)"/><path d="m211.879 64.071h14.202v9.351h-14.202z" fill="#dea42e" transform="matrix(.707 -.707 .707 .707 15.527 174.978)"/><path d="m180.153 32.344h14.202v9.351h-14.202z" fill="#fce06a" transform="matrix(.707 -.707 .707 .707 28.668 143.251)"/><g fill="#690589"><path d="m56.363 239.976c-.512 0-1.024-.195-1.414-.586l-38.339-38.339c-.781-.781-.781-2.047 0-2.828l160.902-160.902c.78-.781 2.048-.781 2.828 0l38.339 38.339c.781.781.781 2.047 0 2.828l-160.902 160.902c-.39.391-.902.586-1.414.586zm-35.51-40.339 35.51 35.51 158.074-158.073-35.51-35.51z"/><path d="m30.804 214.417c-.512 0-1.024-.195-1.414-.586-.781-.781-.781-2.047 0-2.828l160.902-160.902c.78-.781 2.047-.781 2.828 0s.781 2.047 0 2.828l-160.902 160.902c-.39.39-.903.586-1.414.586z"/><path d="m43.583 227.196c-.512 0-1.024-.195-1.414-.586-.781-.781-.781-2.047 0-2.828l160.902-160.902c.78-.781 2.047-.781 2.828 0s.781 2.047 0 2.828l-160.901 160.902c-.391.391-.903.586-1.415.586z"/><path d="m217.265 79.074c-.512 0-1.024-.195-1.414-.586l-38.339-38.339c-.781-.781-.781-2.047 0-2.828l10.042-10.042c.78-.781 2.048-.781 2.828 0l38.339 38.339c.781.781.781 2.047 0 2.828l-10.042 10.042c-.39.39-.902.586-1.414.586zm-35.51-40.339 35.51 35.51 7.214-7.214-35.51-35.51z"/><path d="m217.265 79.074c-.512 0-1.024-.195-1.414-.586l-38.339-38.339c-.781-.781-.781-2.047 0-2.828l30.35-30.35c6.628-6.628 17.414-6.629 24.042 0l17.125 17.125c6.628 6.628 6.628 17.413 0 24.042l-30.35 30.35c-.39.39-.902.586-1.414.586zm-35.51-40.339 35.51 35.51 28.936-28.936c5.068-5.069 5.068-13.316 0-18.385l-17.125-17.125c-5.07-5.069-13.317-5.068-18.385 0z"/><path d="m202.965 30.128c-.512 0-1.023-.195-1.414-.586-.781-.781-.781-2.047 0-2.828l8.7-8.7c.78-.781 2.047-.781 2.828 0s.781 2.047 0 2.828l-8.7 8.7c-.39.391-.902.586-1.414.586z"/><path d="m3.991 254.009c-.523 0-1.034-.206-1.414-.586-.505-.505-.703-1.242-.518-1.932l14.033-52.372c.185-.69.724-1.229 1.414-1.414.689-.184 1.426.012 1.932.518l38.339 38.339c.505.505.703 1.242.518 1.932s-.724 1.229-1.414 1.414l-52.372 14.032c-.171.046-.345.069-.518.069zm15.068-50.508-12.239 45.679 45.679-12.239z"/></g></svg>